<svg width="500" height="500" viewBox="0 0 500 500" fill="none" xmlns="http://www.w3.org/2000/svg">
<g clip-path="url(#clip0)">
<rect width="500" height="500" rx="250" fill="#241C1C"/>
<path d="M450.66 154.193C474.844 133.85 510.156 133.85 534.34 154.193L1154.13 675.507C1200.54 714.545 1172.93 790.25 1112.29 790.25H-127.285C-187.932 790.25 -215.537 714.544 -169.125 675.507L450.66 154.193Z" fill="#6CA64B"/>
<path d="M82.8266 288.446C101.602 275.529 126.398 275.529 145.173 288.446L431.513 485.437C476.004 516.046 454.343 585.75 400.34 585.75H-172.339C-226.343 585.75 -248.004 516.046 -203.513 485.438L82.8266 288.446Z" fill="#6AAE42"/>
<path fill-rule="evenodd" clip-rule="evenodd" d="M-64 588.614L225.63 345L513.46 543.017C533.684 556.93 523.838 588.614 499.291 588.614H-64Z" fill="#7DC354"/>
</g>
<defs>
<clipPath id="clip0">
<rect width="500" height="500" rx="250" fill="white"/>
</clipPath>
</defs>
</svg>
